<?xml version="1.0" standalone="no"?>
<!DOCTYPE svg PUBLIC "-//W3C//DTD SVG 20010904//EN"
 "http://www.w3.org/TR/2001/REC-SVG-20010904/DTD/svg10.dtd">
<svg version="1.0" xmlns="http://www.w3.org/2000/svg"
 width="600.000000pt" height="600.000000pt" viewBox="0 0 600.000000 600.000000"
 preserveAspectRatio="xMidYMid meet">
<metadata>
Created by potrace 1.16, written by Peter Selinger 2001-2019
</metadata>
<g transform="translate(0.000000,600.000000) scale(0.100000,-0.100000)"
fill="#000000" stroke="none">
<path d="M1512 5471 c2 -16 10 -25 26 -28 29 -4 78 -29 88 -44 15 -25 12 -56
-5 -55 -9 0 -19 6 -23 11 -4 6 -7 -6 -7 -25 1 -19 3 -27 6 -17 6 22 11 22 34
-5 12 -15 18 -39 19 -67 0 -42 -1 -43 -18 -28 -17 15 -93 47 -113 47 -5 0 -6
-6 -3 -13 5 -15 73 -52 88 -48 4 1 19 -5 32 -14 30 -19 50 -19 58 1 8 21 8 26
-3 20 -14 -9 -21 20 -21 85 0 33 -4 67 -9 77 -5 9 -12 25 -15 35 -3 10 -32 29
-63 43 -32 14 -62 31 -66 37 -5 7 -7 2 -5 -12z"/>
<path d="M3151 5376 c2 -2 49 -21 104 -41 280 -104 610 -321 796 -523 69 -75
239 -297 239 -312 0 -6 7 -10 17 -10 9 0 31 -12 50 -26 19 -14 37 -24 39 -21
3 3 -11 15 -31 27 -19 12 -53 47 -74 79 -148 216 -342 407 -566 556 -136 91
-328 191 -457 239 -86 32 -129 44 -117 32z"/>
<path d="M3013 5158 c-24 -30 -41 -33 -64 -12 -18 16 -18 15 -14 -20 6 -42 3
-43 -35 -16 -15 11 -29 18 -31 15 -2 -2 -31 3 -64 11 -33 7 -64 14 -70 13 -17
0 47 -25 115 -43 116 -32 317 -126 469 -219 19 -11 32 -16 28 -10 -4 6 0 14 8
17 9 3 18 -1 21 -9 4 -8 12 -15 20 -15 8 0 14 -10 14 -25 0 -18 10 -31 38 -48
63 -40 68 -40 27 -3 -22 19 -43 35 -47 36 -5 0 -8 11 -8 24 0 32 -75 97 -160
139 -53 26 -65 36 -63 54 3 28 -74 95 -114 99 -15 2 -23 0 -17 -4 6 -4 16 -17
22 -29 10 -17 9 -25 -3 -37 -23 -23 -18 -37 10 -30 18 4 27 1 31 -10 11 -28 0
-28 -62 0 -32 14 -70 30 -84 36 -18 7 -21 11 -11 17 7 5 12 12 12 17 -1 5 2 9
7 9 8 0 62 53 62 60 0 13 -21 3 -37 -17z"/>
<path d="M1576 4963 c-31 -13 -47 -14 -85 -5 -25 6 -59 7 -76 4 -30 -6 -30 -7
9 -12 51 -7 67 -31 41 -62 l-20 -23 25 20 c14 11 27 21 29 22 2 1 -2 9 -9 18
-10 12 -10 15 4 15 9 0 16 -5 16 -12 0 -9 3 -9 12 0 7 7 18 12 25 12 7 0 -11
-24 -40 -53 -77 -78 -122 -130 -131 -152 -8 -20 -8 -20 -16 0 l-8 20 -7 -20
c-4 -11 -21 -48 -38 -83 -24 -51 -34 -61 -49 -56 -16 5 -18 2 -13 -19 4 -14 2
-34 -4 -46 -7 -11 -13 -40 -15 -63 -5 -56 -50 -173 -67 -173 -7 0 -14 -6 -16
-12 -3 -7 0 -13 7 -13 8 0 8 -5 0 -21 -11 -19 -7 -39 5 -27 3 3 27 64 54 136
56 154 107 252 215 409 55 80 96 127 132 154 29 21 55 43 59 49 8 12 9 12 -39
-7z"/>
<path d="M3141 4446 c97 -122 167 -219 190 -266 12 -25 44 -78 71 -119 50 -74
148 -245 148 -258 0 -3 -9 2 -20 12 -19 17 -21 17 -55 -9 -35 -27 -36 -27 -81
-12 -24 8 -42 11 -39 6 3 -5 21 -14 40 -20 52 -17 44 -34 -11 -26 -26 3 -53 6
-60 6 -8 0 -14 9 -14 21 0 19 -2 19 -21 5 -16 -11 -28 -12 -48 -5 -24 9 -25 8
-7 -6 11 -8 18 -16 15 -18 -46 -32 -93 -57 -102 -54 -16 6 -150 -87 -187 -130
-17 -18 -30 -43 -30 -54 0 -11 -5 -29 -11 -40 -13 -25 -20 -59 -12 -59 3 0 34
27 70 60 79 75 93 76 93 11 0 -35 7 -58 25 -85 14 -20 25 -43 25 -49 0 -20 21
-36 37 -30 8 3 11 9 6 12 -16 12 -63 111 -63 134 1 20 1 21 11 3 10 -16 14
-14 38 23 28 42 41 44 41 6 0 -32 34 -59 64 -51 37 9 45 50 16 88 -22 30 -22
30 -1 23 13 -4 27 -1 37 9 21 22 26 20 54 -20 14 -20 35 -48 47 -62 20 -25 23
-25 24 -7 4 51 -5 123 -18 149 -15 28 -14 29 9 23 12 -3 47 -9 76 -13 59 -8
56 0 37 -90 -6 -25 -3 -23 23 16 16 25 37 52 47 60 15 13 19 12 31 -5 37 -51
6 42 -63 185 -92 190 -250 434 -391 602 -88 105 -117 129 -41 34z"/>
<path d="M1070 4370 c-14 -25 -22 -262 -9 -254 10 6 11 -16 3 -68 -4 -21 -10
-38 -15 -38 -5 0 -5 7 -2 17 4 10 2 14 -4 10 -8 -5 -11 -103 -4 -157 2 -8 11
21 22 64 11 44 23 84 28 90 4 6 11 20 15 30 5 15 4 17 -8 7 -11 -10 -14 -5
-14 29 -1 42 17 51 30 15 6 -16 7 -15 4 5 -3 14 -8 35 -11 48 -6 17 -4 22 6
20 8 -2 17 -7 20 -11 3 -5 9 1 12 12 3 11 0 19 -5 18 -5 -1 -15 6 -21 16 -10
15 -9 20 6 28 9 6 15 14 12 20 -12 18 -22 9 -35 -32 -8 -22 -17 -42 -22 -45
-12 -8 -10 144 3 168 6 11 8 22 6 25 -3 2 -11 -5 -17 -17z"/>
<path d="M4862 4086 c-2 -36 -47 -136 -62 -136 -4 0 -17 -9 -30 -20 -13 -11
-26 -20 -30 -20 -10 0 -50 49 -50 61 0 5 -4 8 -9 4 -13 -7 -11 -85 2 -85 5 0
53 -29 106 -64 94 -61 190 -111 198 -102 3 3 -19 16 -49 31 -29 14 -68 39 -87
54 -33 27 -33 28 -18 57 22 43 39 141 35 204 -3 41 -5 45 -6 16z"/>
<path d="M4130 3813 c0 -24 44 -163 52 -163 22 0 113 -99 134 -148 33 -72 31
-138 -5 -243 -43 -127 -46 -168 -4 -56 21 53 40 97 44 97 4 0 10 -15 13 -33 7
-39 51 -103 60 -88 8 12 -67 263 -101 341 -13 30 -41 77 -62 105 -21 27 -55
83 -76 123 -32 62 -55 89 -55 65z"/>
<path d="M4241 3064 c-22 -22 -23 -27 -16 -111 9 -114 67 -436 106 -586 33
-124 104 -314 145 -384 34 -58 116 -128 202 -170 68 -34 81 -37 183 -41 102
-4 117 -2 224 29 63 19 115 37 115 41 0 4 -11 10 -25 14 -30 7 -136 75 -184
116 -49 43 -182 196 -244 280 -64 88 -113 168 -183 302 -30 56 -54 98 -54 95
-2 -67 190 -406 265 -469 27 -22 121 -136 100 -120 -11 8 -51 42 -90 75 -104
90 -115 96 -62 35 26 -30 45 -60 43 -66 -6 -16 30 -47 79 -69 22 -9 50 -27 63
-38 15 -14 22 -16 22 -7 0 9 7 7 23 -7 12 -11 62 -47 111 -79 87 -58 88 -58
60 -68 -16 -5 -35 -13 -41 -19 -7 -5 -13 -6 -13 -2 0 4 7 13 16 19 14 10 6 21
-58 72 -40 32 -76 63 -79 68 -4 5 -12 5 -18 1 -7 -4 -25 -2 -41 5 -16 6 -36
10 -45 8 -12 -2 5 -19 51 -52 38 -27 74 -49 81 -49 7 0 13 -8 13 -18 0 -11 6
-16 18 -13 23 7 57 -19 49 -38 -11 -30 -159 -49 -244 -32 -27 5 -31 12 -46 72
-9 37 -20 85 -23 107 -4 22 -22 74 -41 115 -42 91 -66 160 -59 167 3 3 -9 26
-27 50 -17 25 -33 41 -34 36 -2 -5 30 -103 71 -219 87 -248 108 -314 97 -314
-20 0 -116 223 -151 350 -41 150 -100 306 -110 289 -4 -6 -13 5 -21 23 -7 18
-17 38 -21 43 -5 6 -20 25 -33 44 l-25 35 0 -42 c0 -32 19 -83 78 -207 42 -90
82 -163 87 -161 6 2 11 -10 11 -26 1 -17 6 -33 12 -37 16 -10 36 -143 28 -186
l-7 -37 -32 46 c-18 25 -37 46 -44 46 -6 0 -15 10 -18 23 -4 12 -15 31 -25 42
-30 33 -89 165 -75 165 2 0 22 -18 44 -40 50 -50 58 -51 26 -2 -119 180 -149
267 -191 551 -19 129 -33 236 -31 238 5 4 195 -377 213 -427 l13 -35 1 32 c0
17 -5 44 -10 59 -6 15 -12 48 -14 74 -4 57 -49 174 -85 220 -52 67 -112 177
-105 194 8 21 4 19 -25 -10z"/>
<path d="M2041 3010 c-58 -12 -157 -60 -205 -99 -50 -40 -80 -48 -111 -27 -24
16 -25 15 -25 -3 0 -11 12 -23 30 -31 17 -7 30 -16 30 -21 0 -4 -15 -24 -34
-44 -28 -29 -35 -46 -41 -95 -4 -33 -9 -60 -12 -60 -3 0 -12 8 -19 18 -12 15
-13 13 -3 -13 8 -23 19 -125 13 -125 -2 0 -102 194 -151 290 -18 36 -32 62
-33 59 -1 -31 148 -339 183 -376 11 -13 25 -23 31 -23 6 0 5 4 -2 9 -12 7 -12
12 -1 30 8 11 19 21 26 21 27 0 120 -156 109 -185 -4 -13 12 -35 26 -35 12 0
-19 79 -62 157 -22 40 -40 75 -40 78 0 18 59 -32 167 -142 67 -69 128 -123
135 -121 7 3 -59 76 -145 163 l-157 158 63 -6 c34 -3 71 -8 82 -12 13 -4 10 1
-10 17 -16 13 -41 33 -55 45 l-25 22 30 58 c32 63 90 133 110 133 6 0 20 -24
30 -54 21 -62 26 -69 80 -115 22 -19 42 -46 45 -59 4 -22 6 -23 18 -9 12 14 9
21 -23 53 l-37 37 6 71 c11 122 18 142 53 150 26 7 48 -3 26 -11 -34 -12 2
-113 40 -113 38 0 45 16 35 72 -10 56 -5 68 20 50 9 -7 25 -15 34 -18 9 -3 21
-18 27 -33 6 -16 10 -20 10 -9 2 30 -20 64 -52 84 -30 18 -31 19 -9 22 30 4
28 22 -2 22 -13 0 -26 4 -28 10 -5 13 -126 20 -177 10z"/>
<path d="M3820 2775 c-9 -11 -10 -33 -2 -89 6 -44 7 -91 1 -113 -15 -68 27
-282 95 -482 28 -83 33 -108 24 -125 -10 -20 -10 -20 12 1 l23 22 -26 58 c-32
73 -83 275 -91 369 l-7 69 32 -65 c33 -68 97 -307 100 -375 1 -22 7 -46 12
-53 5 -7 7 -28 4 -47 -3 -19 -3 -35 1 -35 4 0 15 -14 25 -32 14 -25 15 -33 5
-39 -10 -7 -9 -9 5 -9 9 0 17 3 18 8 0 4 2 15 4 25 2 9 0 15 -5 12 -5 -3 -23
57 -40 132 -18 76 -48 197 -67 268 -72 267 -94 369 -96 441 -2 76 -6 84 -27
59z"/>
<path d="M4915 2141 c29 -57 75 -118 114 -154 49 -44 143 -105 176 -113 14 -3
28 -10 31 -15 3 -5 20 -9 37 -8 29 0 30 1 13 12 -125 79 -177 119 -268 205
-59 56 -110 102 -113 102 -3 0 1 -13 10 -29z"/>
<path d="M2160 2135 c0 -2 34 -41 75 -86 41 -46 72 -85 70 -89 -7 -11 32 -110
60 -151 14 -21 25 -42 25 -47 0 -10 86 -72 100 -72 6 0 6 9 0 23 -14 31 -28
177 -18 183 7 5 159 -20 201 -32 25 -8 67 -104 67 -152 0 -46 10 -82 21 -82
18 0 8 83 -17 146 -14 36 -23 68 -20 71 3 4 52 1 108 -5 l103 -11 43 -47 c24
-26 52 -65 63 -86 21 -40 32 -49 27 -21 -2 13 10 20 52 31 30 7 69 17 85 22
26 8 24 9 -15 5 -25 -2 -66 -7 -92 -11 l-46 -6 -27 52 -26 52 40 -7 c23 -4 64
-18 92 -31 47 -23 53 -24 68 -10 10 9 22 16 28 16 15 0 153 141 193 197 30 41
20 35 -68 -48 -56 -52 -113 -101 -127 -109 -22 -12 -49 -11 -193 8 -92 12
-230 29 -307 38 -289 33 -376 68 -492 200 -50 56 -73 75 -73 59z"/>
<path d="M4070 2040 c0 -22 74 -228 95 -264 43 -73 96 -121 148 -134 64 -17
149 -17 178 -1 33 18 8 22 -67 10 -32 -5 -63 -5 -68 -1 -5 5 -14 6 -21 4 -24
-10 -82 24 -118 68 -41 50 -75 123 -80 173 -2 18 -9 42 -16 52 -8 10 -2 5 13
-10 14 -15 26 -25 26 -21 0 4 9 -3 20 -16 11 -13 20 -20 20 -16 0 4 17 -9 38
-28 78 -72 160 -133 208 -153 89 -38 100 -35 25 7 -141 78 -342 238 -382 305
-11 16 -19 28 -19 25z"/>
<path d="M5253 1943 c10 -12 36 -34 57 -48 22 -15 45 -37 53 -49 14 -21 14
-21 -52 -19 l-66 1 65 -7 c111 -13 163 -35 330 -146 120 -80 194 -146 287
-258 l73 -88 0 37 c0 25 -5 38 -17 42 -10 3 -49 39 -88 79 -56 60 -64 72 -42
64 50 -19 44 -11 -14 19 -31 16 -94 56 -140 89 -46 33 -111 75 -144 92 -53 28
-182 114 -285 188 -30 22 -32 22 -17 4z"/>
</g>
</svg>
